#!OML:ASF H:\Not Pregnant\Project 1\Capture day 1\Session 1\non-pregnant.ASF
:FULLY-SPECIFIED
:DEGREES
1457
root 16.838 15.5276 33.3182 8.24207 -38.8381 -353.287
lowerback -1.8199 -2.68331 -9.69048
upperback -5.46938 -3.77415 -0.710975
thorax -4.14914 -1.53455 4.72136
lowerneck 36.7154 -14.035 -29.1145
upperneck -8.93292 -29.6438 42.9749
head 3.9629 -19.2114 20.7872
rclavicle -5.78029e-014 1.11319e-014
rhumerus -42.2469 -14.5189 -73.3873
rradius 24.737
rwrist 26.4311
rhand -2.51273 1.05767
rfingers 7.12502
rthumb 23.1815 -27.5674
lclavicle -5.78029e-014 1.11319e-014
lhumerus -37.6174 -1.71561 81.3216
lradius 40.9045
lwrist 39.1474
lhand -16.7847 -11.5131
lfingers 7.12502
lthumb 9.4431 18.2554
rfemur -44.4336 -12.8009 30.8227
rtibia 23.5675
rfoot -12.6661 -0.244177
rtoes -14.0981
lfemur 0.672858 7.46052 -25.9911
ltibia 15.0495
lfoot -18.1493 -13.9092
ltoes -21.2226
1458
root 16.7425 15.5262 33.4308 8.21751 -39.1407 -353.265
lowerback -2.14831 -2.67121 -9.51515
upperback -5.5294 -3.72321 -0.692016
thorax -4.04092 -1.52048 4.62844
lowerneck 36.8254 -14.0301 -29.1416
upperneck -9.04434 -29.6463 42.9337
head 3.90948 -19.2136 20.7847
rclavicle -1.53107e-014 -1.70955e-014
rhumerus -42.5143 -14.893 -72.8721
rradius 24.3307
rwrist 27.1845
rhand -2.20563 1.01458
rfingers 7.12502
rthumb 23.4762 -27.5731
lclavicle -1.53107e-014 -1.70955e-014
lhumerus -38.1455 -1.44906 81.4626
lradius 41.1353
lwrist 39.2361
lhand -16.6614 -11.554
lfingers 7.12502
lthumb 9.562 18.209
rfemur -44.3199 -12.8572 30.9529
rtibia 24.2037
rfoot -11.944 -0.545703
rtoes -13.1909
lfemur 1.62299 7.00431 -26.0068
ltibia 14.3183
lfoot -17.4661 -13.4655
ltoes -22.4602
1459
root 16.6456 15.5278 33.5437 8.23503 -39.453 -353.29
lowerback -2.48453 -2.65928 -9.29914
upperback -5.60089 -3.67327 -0.66002
thorax -3.94119 -1.50744 4.52691
lowerneck 36.9286 -14.017 -29.1837
upperneck -9.12191 -29.6531 42.8822
head 3.86886 -19.2158 20.7769
rclavicle -1.60115e-015 -1.66979e-014
rhumerus -42.7806 -15.2692 -72.344
rradius 23.9522
rwrist 27.9228
rhand -1.94317 1.00005
rfingers 7.12502
rthumb 23.7279 -27.5552
lclavicle -1.60115e-015 -1.66979e-014
lhumerus -38.6941 -1.15048 81.5913
lradius 41.3205
lwrist 39.3112
lhand -16.5332 -11.6053
lfingers 7.12502
lthumb 9.68576 18.152
rfemur -44.2505 -12.8485 31.068
rtibia 24.8605
rfoot -11.1267 -0.694676
rtoes -12.2764
lfemur 2.55136 6.54112 -25.9957
ltibia 13.5828
lfoot -16.6835 -13.0551
ltoes -23.6805
1460
root 16.5475 15.5309 33.6577 8.25545 -39.7864 -353.302
lowerback -2.84087 -2.64548 -9.08061
upperback -5.67371 -3.62065 -0.63259
thorax -3.83225 -1.49363 4.41859
lowerneck 37.0152 -14.0018 -29.2266
upperneck -9.16665 -29.6628 42.8209
head 3.83902 -19.2168 20.7605
rclavicle -2.19424e-014 -4.37326e-015
rhumerus -43.0334 -15.6327 -71.8261
rradius 23.606
rwrist 28.6212
rhand -1.72822 0.993327
rfingers 7.12502
rthumb 23.934 -27.535
lclavicle -2.19424e-014 -4.37326e-015
lhumerus -39.2457 -0.819991 81.7011
lradius 41.4461
lwrist 39.3644
lhand -16.3933 -11.6679
lfingers 7.12502
lthumb 9.82075 18.0831
rfemur -44.1967 -12.7719 31.1052
rtibia 25.5253
rfoot -10.2663 -0.620092
rtoes -11.5146
lfemur 3.4034 6.11043 -26.0048
ltibia 12.9621
lfoot -15.8492 -12.7094
ltoes -24.7963
1461
root 16.4489 15.5339 33.771 8.31812 -40.1344 -353.378
lowerback -3.18614 -2.62516 -8.81415
upperback -5.74859 -3.56219 -0.592442
thorax -3.73365 -1.47782 4.2981
lowerneck 37.0843 -13.9908 -29.2652
upperneck -9.18329 -29.6803 42.7519
head 3.82034 -19.2192 20.7339
rclavicle -6.61953e-014 2.46493e-014
rhumerus -43.2648 -15.9625 -71.3343
rradius 23.2914
rwrist 29.2502
rhand -1.57055 1.00146
rfingers 7.12502
rthumb 24.0852 -27.5069
lclavicle -6.61953e-014 2.46493e-014
lhumerus -39.7965 -0.461102 81.7952
lradius 41.5031
lwrist 39.3895
lhand -16.258 -11.7517
lfingers 7.12502
lthumb 9.95124 17.9931
rfemur -44.1125 -12.5598 31.0933
rtibia 26.1872
rfoot -9.41529 -0.361237
rtoes -10.9627
lfemur 4.11145 5.74272 -25.9606
ltibia 12.5883
lfoot -15.0217 -12.4497
ltoes -25.8271
1462
root 16.35 15.5354 33.8842 8.39528 -40.5095 -353.479
lowerback -3.52504 -2.59762 -8.52761
upperback -5.82093 -3.49668 -0.547363
thorax -3.63727 -1.459 4.17238
lowerneck 37.1353 -13.978 -29.3023
upperneck -9.17609 -29.6975 42.6789
head 3.80961 -19.2196 20.7024
rclavicle 7.44666e-015 1.92821e-014
rhumerus -43.4736 -16.2704 -70.861
rradius 23.0102
rwrist 29.8302
rhand -1.46854 1.01581
rfingers 7.12502
rthumb 24.183 -27.4796
lclavicle 7.44666e-015 1.92821e-014
lhumerus -40.347 -0.0710708 81.869
lradius 41.4932
lwrist 39.3858
lhand -16.1332 -11.849
lfingers 7.12502
lthumb 10.0716 17.89
rfemur -44.0006 -12.2614 31.0425
rtibia 26.8572
rfoot -8.59973 0.108115
rtoes -10.4996
lfemur 4.64107 5.46392 -25.8915
ltibia 12.5441
lfoot -14.2535 -12.2838
ltoes -26.802
1463
root 16.2509 15.5355 33.9973 8.50123 -40.9096 -353.649
lowerback -3.84207 -2.56134 -8.19157
upperback -5.8877 -3.4235 -0.487137
thorax -3.54912 -1.43749 4.03645
lowerneck 37.168 -13.9653 -29.3346
upperneck -9.15047 -29.7134 42.6011
head 3.80415 -19.2172 20.6654
rclavicle -1.29272e-014 -1.0635e-014
rhumerus -43.6617 -16.4881 -70.4493
rradius 22.7909
rwrist 30.2878
rhand -1.41317 1.02415
rfingers 7.12502
rthumb 24.2361 -27.4642
lclavicle -1.29272e-014 -1.0635e-014
lhumerus -40.9017 0.343287 81.9254
lradius 41.4153
lwrist 39.3521
lhand -16.0215 -11.9481
lfingers 7.12502
lthumb 10.1794 17.7857
rfemur -43.8386 -11.8946 31.0057
rtibia 27.5271
rfoot -7.81984 0.711081
rtoes -9.86017
lfemur 4.98056 5.28324 -25.7535
ltibia 12.8821
lfoot -13.5652 -12.2378
ltoes -27.7033
1464
root 16.1516 15.5345 34.11 8.63134 -41.3411 -353.88
lowerback -4.13446 -2.51393 -7.81446
upperback -5.94982 -3.3401 -0.41554
thorax -3.47176 -1.41167 3.8912
lowerneck 37.1879 -13.9482 -29.3666
upperneck -9.11122 -29.7253 42.5268
head 3.80365 -19.2126 20.6301
rclavicle 1.14985e-014 -3.34952e-014
rhumerus -43.833 -16.6694 -70.0699
rradius 22.6242
rwrist 30.6744
rhand -1.40337 1.04938
rfingers 7.12502
rthumb 24.2455 -27.4377
lclavicle 1.14985e-014 -3.34952e-014
lhumerus -41.4639 0.775735 81.9617
lradius 41.2744
lwrist 39.2931
lhand -15.9219 -12.0467
lfingers 7.12502
lthumb 10.2755 17.6823
rfemur -43.6322 -11.435 30.9747
rtibia 28.1992
rfoot -7.09254 1.31125
rtoes -8.91555
lfemur 5.14405 5.18995 -25.551
ltibia 13.5665
lfoot -12.9205 -12.3377
ltoes -28.4678
1465
root 16.052 15.5328 34.222 8.76755 -41.8055 -354.153
lowerback -4.40018 -2.45855 -7.41592
upperback -6.00277 -3.2504 -0.334056
thorax -3.40023 -1.38305 3.74579
lowerneck 37.192 -13.9221 -29.4049
upperneck -9.05891 -29.7297 42.459
head 3.80886 -19.2042 20.5998
rclavicle 4.61522e-014 -8.64713e-015
rhumerus -43.9807 -16.7808 -69.7505
rradius 22.5244
rwrist 30.9476
rhand -1.42952 1.081
rfingers 7.12502
rthumb 24.2205 -27.4094
lclavicle 4.61522e-014 -8.64713e-015
lhumerus -42.0306 1.22442 81.9759
lradius 41.0744
lwrist 39.2114
lhand -15.8324 -12.1226
lfingers 7.12502
lthumb 10.3618 17.6021
rfemur -43.3705 -10.8767 30.9382
rtibia 28.8584
rfoot -6.45142 1.81804
rtoes -7.55265
lfemur 5.16126 5.17242 -25.2941
ltibia 14.5527
lfoot -12.2894 -12.6018
ltoes -29.1132
1466
root 15.9517 15.5307 34.3325 8.90611 -42.3024 -354.45
lowerback -4.64212 -2.39695 -7.01709
upperback -6.04926 -3.15638 -0.249578
thorax -3.335 -1.35193 3.60463
lowerneck 37.1835 -13.8875 -29.4455
upperneck -8.99498 -29.7266 42.4031
head 3.81971 -19.1933 20.5774
rclavicle -7.86271e-014 -2.16675e-014
rhumerus -44.1082 -16.8422 -69.4935
rradius 22.4945
rwrist 31.1069
rhand -1.48652 1.11183
rfingers 7.12502
rthumb 24.1658 -27.3859
lclavicle -7.86271e-014 -2.16675e-014
lhumerus -42.5993 1.68186 81.9627
lradius 40.8222
lwrist 39.1162
lhand -15.749 -12.1614
lfingers 7.12502
lthumb 10.4423 17.5593
rfemur -43.06 -10.1825 30.8747
rtibia 29.5001
rfoot -5.92041 2.142
rtoes -5.88027
lfemur 5.04907 5.22177 -24.993
ltibia 15.7739
lfoot -11.6005 -13.0649
ltoes -29.5601
